<mxfile host="65bd71144e">
    <diagram id="z9cO29gwt7oX0-JFSar5" name="Page-1">
        <mxGraphModel dx="1423" dy="882" grid="1" gridSize="10" guides="1" tooltips="1" connect="1" arrows="1" fold="1" page="1" pageScale="1" pageWidth="827" pageHeight="1169" math="0" shadow="0">
            <root>
                <mxCell id="0"/>
                <mxCell id="1" parent="0"/>
                <mxCell id="10" value="" style="swimlane;startSize=0;sketch=1;fillColor=#f8cecc;strokeColor=#b85450;fillStyle=auto;glass=0;shadow=0;rounded=1;swimlaneFillColor=#FFE6CC;" vertex="1" parent="1">
                    <mxGeometry x="214" y="180" width="296" height="70" as="geometry"/>
                </mxCell>
                <mxCell id="3" value="Tomcat最大线程数 * 1000" style="text;html=1;strokeColor=none;fillColor=none;align=center;verticalAlign=middle;whiteSpace=wrap;rounded=0;" parent="1" vertex="1">
                    <mxGeometry x="320" y="194" width="160" height="20" as="geometry"/>
                </mxCell>
                <mxCell id="6" value="" style="endArrow=none;html=1;" parent="1" edge="1">
                    <mxGeometry width="50" height="50" relative="1" as="geometry">
                        <mxPoint x="325" y="214" as="sourcePoint"/>
                        <mxPoint x="475" y="214" as="targetPoint"/>
                    </mxGeometry>
                </mxCell>
                <mxCell id="7" value="RT(ms)" style="text;html=1;strokeColor=none;fillColor=none;align=center;verticalAlign=middle;whiteSpace=wrap;rounded=0;" parent="1" vertex="1">
                    <mxGeometry x="220" y="200" width="60" height="30" as="geometry"/>
                </mxCell>
                <mxCell id="8" value="&amp;gt;" style="text;html=1;strokeColor=none;fillColor=none;align=center;verticalAlign=middle;whiteSpace=wrap;rounded=0;fontSize=28;" parent="1" vertex="1">
                    <mxGeometry x="270" y="200" width="60" height="30" as="geometry"/>
                </mxCell>
                <mxCell id="9" value="单个容器QPS" style="text;html=1;strokeColor=none;fillColor=none;align=center;verticalAlign=middle;whiteSpace=wrap;rounded=0;fontSize=12;" parent="1" vertex="1">
                    <mxGeometry x="360" y="214" width="80" height="26" as="geometry"/>
                </mxCell>
            </root>
        </mxGraphModel>
    </diagram>
</mxfile>